<svg xmlns="http://www.w3.org/2000/svg" xmlns:xlink="http://www.w3.org/1999/xlink"><symbol id="cross" viewBox="0 0 14 14">
<path d="M12.9178 1L0.917846 13" stroke="white" stroke-width="1.2" stroke-linecap="round"/>
<path d="M0.917847 1L12.9178 13" stroke="white" stroke-width="1.2" stroke-linecap="round"/>
</symbol><symbol id="discord" viewBox="0 0 28 34">
<path d="M24.72 0.27832H3.28C1.472 0.27832 0 1.7941 0 3.67235V25.9477C0 27.826 1.472 29.3418 3.28 29.3418H21.424L20.576 26.2937L22.624 28.2543L24.56 30.0996L28 33.2301V3.67235C28 1.7941 26.528 0.27832 24.72 0.27832ZM18.544 21.7958C18.544 21.7958 17.968 21.0873 17.488 20.4613C19.584 19.8517 20.384 18.5006 20.384 18.5006C19.728 18.9455 19.104 19.2585 18.544 19.4727C17.744 19.8187 16.976 20.0494 16.224 20.1812C14.688 20.4777 13.28 20.3954 12.08 20.1647C11.168 19.9835 10.384 19.7198 9.728 19.4562C9.36 19.3079 8.96 19.1267 8.56 18.896C8.512 18.8631 8.464 18.8466 8.416 18.8137C8.384 18.7972 8.368 18.7807 8.352 18.7642C8.064 18.5995 7.904 18.4842 7.904 18.4842C7.904 18.4842 8.672 19.8022 10.704 20.4283C10.224 21.0544 9.632 21.7958 9.632 21.7958C6.096 21.6805 4.752 19.2915 4.752 19.2915C4.752 13.9862 7.056 9.68604 7.056 9.68604C9.36 7.90665 11.552 7.95607 11.552 7.95607L11.712 8.15378C8.832 9.01053 7.504 10.3121 7.504 10.3121C7.504 10.3121 7.856 10.1144 8.448 9.83432C10.16 9.05996 11.52 8.84577 12.08 8.79634C12.176 8.77987 12.256 8.76339 12.352 8.76339C13.328 8.63159 14.432 8.59863 15.584 8.73044C17.104 8.91167 18.736 9.373 20.4 10.3121C20.4 10.3121 19.136 9.07643 16.416 8.21969L16.64 7.95607C16.64 7.95607 18.832 7.90665 21.136 9.68604C21.136 9.68604 23.44 13.9862 23.44 19.2915C23.44 19.2915 22.08 21.6805 18.544 21.7958ZM11.104 14.1016C10.192 14.1016 9.472 14.9254 9.472 15.9304C9.472 16.9354 10.208 17.7592 11.104 17.7592C12.016 17.7592 12.736 16.9354 12.736 15.9304C12.752 14.9254 12.016 14.1016 11.104 14.1016ZM16.944 14.1016C16.032 14.1016 15.312 14.9254 15.312 15.9304C15.312 16.9354 16.048 17.7592 16.944 17.7592C17.856 17.7592 18.576 16.9354 18.576 15.9304C18.576 14.9254 17.856 14.1016 16.944 14.1016Z" fill="#157FFB"/>
</symbol><symbol id="login" viewBox="0 0 11 11">
<path d="M5.66207 4.99053H5.66207C4.63976 4.99055 3.81071 4.16228 3.81071 3.14916C3.81071 2.13605 4.63976 1.30779 5.66207 1.30779C6.68439 1.30779 7.51343 2.13605 7.51343 3.14916C7.51343 4.16227 6.68439 4.99053 5.66207 4.99053ZM1.70478 10.518C1.53995 10.518 1.4017 10.446 1.32046 10.3503C1.24418 10.2604 1.21722 10.1525 1.25583 10.033C1.85481 8.18019 3.60401 6.83525 5.66205 6.83525C7.72009 6.83525 9.4693 8.18018 10.0683 10.033C10.1069 10.1525 10.0799 10.2604 10.0036 10.3503C9.9224 10.446 9.78415 10.518 9.61932 10.518H1.70478Z" stroke="white" stroke-width="0.9" stroke-linecap="round" stroke-linejoin="round"/>
</symbol><symbol id="loupe" viewBox="0 0 13 12">
<path d="M0.746253 11.1465L4.15875 7.734C3.49775 6.91751 3.09975 5.88 3.09975 4.75001C3.09975 2.13101 5.23076 0 7.84976 0C10.4688 0 12.5997 2.13098 12.5997 4.74998C12.5997 7.36898 10.4687 9.49999 7.84974 9.49999C6.71975 9.49999 5.68224 9.102 4.86575 8.44099L1.45324 11.8535C1.35574 11.951 1.22775 12 1.09974 12C0.971722 12 0.843729 11.951 0.746229 11.8535C0.550737 11.658 0.550737 11.342 0.746253 11.1465ZM7.84974 8.49998C9.91775 8.49998 11.5997 6.81799 11.5997 4.74998C11.5997 2.68198 9.91775 0.999984 7.84974 0.999984C5.78173 0.999984 4.09974 2.68198 4.09974 4.74998C4.09974 6.81799 5.78175 8.49998 7.84974 8.49998Z" fill="white"/>
</symbol><symbol id="Menu" viewBox="0 0 16 14">
<path d="M0.917847 1H9.91785" stroke="white" stroke-width="1.2" stroke-linecap="round"/>
<path d="M5.91785 13H14.9178" stroke="white" stroke-width="1.2" stroke-linecap="round"/>
<path d="M0.917847 7H14.9178" stroke="white" stroke-width="1.2" stroke-linecap="round"/>
</symbol><symbol id="twitter" viewBox="0 0 33 26">
<path d="M33 3.5178C31.7109 3.99398 30.4218 4.47018 29.1327 4.47018C30.4218 3.7559 31.7109 2.56541 32.2266 0.898747C30.9375 1.61303 29.3907 2.08921 27.8436 2.32731C26.5548 1.37493 24.75 0.660645 22.9452 0.660645C19.0782 0.660645 15.9843 3.5178 15.9843 6.85116C15.9843 7.32734 15.9843 7.80352 16.2423 8.27972C10.5703 8.04162 5.67186 5.66067 2.32032 1.85113C1.80468 2.80352 1.28907 3.7559 1.28907 4.94639C1.28907 7.08923 2.57814 8.99401 4.38282 10.1845C3.35157 10.1845 2.32032 9.94639 1.28907 9.47021C1.28907 12.5655 3.60936 14.9463 6.70314 15.6608C6.1875 15.6608 5.67186 15.8988 4.89843 15.8988C4.38282 15.8988 4.125 15.8988 3.60936 15.8988C4.38282 18.2798 6.96093 20.1846 10.0547 20.1846C7.73436 21.6131 4.89843 22.8036 1.54686 22.8036C1.03125 22.8036 0.51564 22.8036 0 22.8036C3.09375 24.4704 6.44532 25.6606 10.3125 25.6606C22.6875 25.6606 29.6484 16.1368 29.6484 7.80352V7.08923C30.9375 5.89875 31.9686 4.94639 33 3.5178Z" fill="#157FFB"/>
</symbol></svg>