<svg width="28" height="34" viewBox="0 0 28 34" fill="none" xmlns="http://www.w3.org/2000/svg">
<path d="M24.72 0.27832H3.28C1.472 0.27832 0 1.7941 0 3.67235V25.9477C0 27.826 1.472 29.3418 3.28 29.3418H21.424L20.576 26.2937L22.624 28.2543L24.56 30.0996L28 33.2301V3.67235C28 1.7941 26.528 0.27832 24.72 0.27832ZM18.544 21.7958C18.544 21.7958 17.968 21.0873 17.488 20.4613C19.584 19.8517 20.384 18.5006 20.384 18.5006C19.728 18.9455 19.104 19.2585 18.544 19.4727C17.744 19.8187 16.976 20.0494 16.224 20.1812C14.688 20.4777 13.28 20.3954 12.08 20.1647C11.168 19.9835 10.384 19.7198 9.728 19.4562C9.36 19.3079 8.96 19.1267 8.56 18.896C8.512 18.8631 8.464 18.8466 8.416 18.8137C8.384 18.7972 8.368 18.7807 8.352 18.7642C8.064 18.5995 7.904 18.4842 7.904 18.4842C7.904 18.4842 8.672 19.8022 10.704 20.4283C10.224 21.0544 9.632 21.7958 9.632 21.7958C6.096 21.6805 4.752 19.2915 4.752 19.2915C4.752 13.9862 7.056 9.68604 7.056 9.68604C9.36 7.90665 11.552 7.95607 11.552 7.95607L11.712 8.15378C8.832 9.01053 7.504 10.3121 7.504 10.3121C7.504 10.3121 7.856 10.1144 8.448 9.83432C10.16 9.05996 11.52 8.84577 12.08 8.79634C12.176 8.77987 12.256 8.76339 12.352 8.76339C13.328 8.63159 14.432 8.59863 15.584 8.73044C17.104 8.91167 18.736 9.373 20.4 10.3121C20.4 10.3121 19.136 9.07643 16.416 8.21969L16.64 7.95607C16.64 7.95607 18.832 7.90665 21.136 9.68604C21.136 9.68604 23.44 13.9862 23.44 19.2915C23.44 19.2915 22.08 21.6805 18.544 21.7958ZM11.104 14.1016C10.192 14.1016 9.472 14.9254 9.472 15.9304C9.472 16.9354 10.208 17.7592 11.104 17.7592C12.016 17.7592 12.736 16.9354 12.736 15.9304C12.752 14.9254 12.016 14.1016 11.104 14.1016ZM16.944 14.1016C16.032 14.1016 15.312 14.9254 15.312 15.9304C15.312 16.9354 16.048 17.7592 16.944 17.7592C17.856 17.7592 18.576 16.9354 18.576 15.9304C18.576 14.9254 17.856 14.1016 16.944 14.1016Z" fill="#157FFB"/>
</svg>
