<svg width="11" height="11" viewBox="0 0 11 11" fill="none" xmlns="http://www.w3.org/2000/svg">
<path d="M5.66207 4.99053H5.66207C4.63976 4.99055 3.81071 4.16228 3.81071 3.14916C3.81071 2.13605 4.63976 1.30779 5.66207 1.30779C6.68439 1.30779 7.51343 2.13605 7.51343 3.14916C7.51343 4.16227 6.68439 4.99053 5.66207 4.99053ZM1.70478 10.518C1.53995 10.518 1.4017 10.446 1.32046 10.3503C1.24418 10.2604 1.21722 10.1525 1.25583 10.033C1.85481 8.18019 3.60401 6.83525 5.66205 6.83525C7.72009 6.83525 9.4693 8.18018 10.0683 10.033C10.1069 10.1525 10.0799 10.2604 10.0036 10.3503C9.9224 10.446 9.78415 10.518 9.61932 10.518H1.70478Z" stroke="white" stroke-width="0.9" stroke-linecap="round" stroke-linejoin="round"/>
</svg>
