<svg width="13" height="12" viewBox="0 0 13 12" fill="none" xmlns="http://www.w3.org/2000/svg">
<path d="M0.746253 11.1465L4.15875 7.734C3.49775 6.91751 3.09975 5.88 3.09975 4.75001C3.09975 2.13101 5.23076 0 7.84976 0C10.4688 0 12.5997 2.13098 12.5997 4.74998C12.5997 7.36898 10.4687 9.49999 7.84974 9.49999C6.71975 9.49999 5.68224 9.102 4.86575 8.44099L1.45324 11.8535C1.35574 11.951 1.22775 12 1.09974 12C0.971722 12 0.843729 11.951 0.746229 11.8535C0.550737 11.658 0.550737 11.342 0.746253 11.1465ZM7.84974 8.49998C9.91775 8.49998 11.5997 6.81799 11.5997 4.74998C11.5997 2.68198 9.91775 0.999984 7.84974 0.999984C5.78173 0.999984 4.09974 2.68198 4.09974 4.74998C4.09974 6.81799 5.78175 8.49998 7.84974 8.49998Z" fill="white"/>
</svg>
