<svg width="33" height="26" viewBox="0 0 33 26" fill="none" xmlns="http://www.w3.org/2000/svg">
<path d="M33 3.5178C31.7109 3.99398 30.4218 4.47018 29.1327 4.47018C30.4218 3.7559 31.7109 2.56541 32.2266 0.898747C30.9375 1.61303 29.3907 2.08921 27.8436 2.32731C26.5548 1.37493 24.75 0.660645 22.9452 0.660645C19.0782 0.660645 15.9843 3.5178 15.9843 6.85116C15.9843 7.32734 15.9843 7.80352 16.2423 8.27972C10.5703 8.04162 5.67186 5.66067 2.32032 1.85113C1.80468 2.80352 1.28907 3.7559 1.28907 4.94639C1.28907 7.08923 2.57814 8.99401 4.38282 10.1845C3.35157 10.1845 2.32032 9.94639 1.28907 9.47021C1.28907 12.5655 3.60936 14.9463 6.70314 15.6608C6.1875 15.6608 5.67186 15.8988 4.89843 15.8988C4.38282 15.8988 4.125 15.8988 3.60936 15.8988C4.38282 18.2798 6.96093 20.1846 10.0547 20.1846C7.73436 21.6131 4.89843 22.8036 1.54686 22.8036C1.03125 22.8036 0.51564 22.8036 0 22.8036C3.09375 24.4704 6.44532 25.6606 10.3125 25.6606C22.6875 25.6606 29.6484 16.1368 29.6484 7.80352V7.08923C30.9375 5.89875 31.9686 4.94639 33 3.5178Z" fill="#157FFB"/>
</svg>
