<svg width="28" height="34" fill="none" xmlns="http://www.w3.org/2000/svg"><path d="M24.72.278H3.28C1.472.278 0 1.794 0 3.672v22.276c0 1.878 1.472 3.394 3.28 3.394h18.144l-.848-3.048 2.048 1.96L24.56 30.1 28 33.23V3.672C28 1.794 26.528.278 24.72.278zm-6.176 21.518s-.576-.709-1.056-1.335c2.096-.61 2.896-1.96 2.896-1.96a9.057 9.057 0 01-1.84.972c-.8.346-1.568.576-2.32.708a10.89 10.89 0 01-4.144-.016 13.137 13.137 0 01-2.352-.709 9.25 9.25 0 01-1.168-.56c-.048-.033-.096-.05-.144-.082a.222.222 0 01-.064-.05c-.288-.165-.448-.28-.448-.28s.768 1.318 2.8 1.944c-.48.626-1.072 1.368-1.072 1.368-3.536-.116-4.88-2.505-4.88-2.505 0-5.305 2.304-9.605 2.304-9.605 2.304-1.78 4.496-1.73 4.496-1.73l.16.198c-2.88.857-4.208 2.158-4.208 2.158s.352-.198.944-.478c1.712-.774 3.072-.988 3.632-1.038.096-.016.176-.033.272-.033a13.15 13.15 0 013.232-.033c1.52.182 3.152.643 4.816 1.582 0 0-1.264-1.236-3.984-2.092l.224-.264s2.192-.05 4.496 1.73c0 0 2.304 4.3 2.304 9.605 0 0-1.36 2.39-4.896 2.505zm-7.44-7.694c-.912 0-1.632.823-1.632 1.828 0 1.005.736 1.83 1.632 1.83.912 0 1.632-.825 1.632-1.83.016-1.005-.72-1.828-1.632-1.828zm5.84 0c-.912 0-1.632.823-1.632 1.828 0 1.005.736 1.83 1.632 1.83.912 0 1.632-.825 1.632-1.83 0-1.005-.72-1.828-1.632-1.828z" fill="#157FFB"/></svg>