<svg width="33" height="26" fill="none" xmlns="http://www.w3.org/2000/svg"><path d="M33 3.518c-1.29.476-2.578.952-3.867.952 1.289-.714 2.577-1.905 3.094-3.57-1.29.714-2.836 1.19-4.383 1.428-1.29-.952-3.094-1.666-4.899-1.666-3.867 0-6.96 2.857-6.96 6.19 0 .476 0 .953.257 1.429C10.57 8.042 5.672 5.66 2.32 1.85c-.515.953-1.03 1.905-1.03 3.095 0 2.143 1.288 4.048 3.093 5.239-1.031 0-2.063-.239-3.094-.715 0 3.095 2.32 5.476 5.414 6.19-.516 0-1.031.239-1.805.239H3.61c.774 2.38 3.352 4.286 6.446 4.286-2.32 1.428-5.157 2.619-8.508 2.619H0c3.094 1.666 6.445 2.857 10.313 2.857 12.374 0 19.335-9.524 19.335-17.857v-.715c1.29-1.19 2.32-2.143 3.352-3.571z" fill="#157FFB"/></svg>